<?xml version="1.0" encoding="UTF-8" standalone="no"?> <svg id="line" xmlns="http://www.w3.org/2000/svg" viewBox="0 0 340 340"><title>kitchen equipment</title><path d="M7.613,263.676a4,4,0,0,0-.217,3.863,30.368,30.368,0,0,0,7.852,10.008,4,4,0,1,0,5.172-6.1q-.933-.792-1.761-1.64H137.923q-.828.849-1.764,1.642a4,4,0,0,0,5.174,6.1,30.4,30.4,0,0,0,7.854-10.011,4,4,0,0,0-3.605-5.733H11A4,4,0,0,0,7.613,263.676Z"/><path d="M136.647,296.07a4,4,0,0,0,5.652.253,30.092,30.092,0,0,0,6.888-9.16,4,4,0,0,0-3.605-5.734H11a4,4,0,0,0-3.6,5.734,30.068,30.068,0,0,0,6.888,9.16,4,4,0,1,0,5.4-5.9q-.53-.484-1.022-.989H137.924q-.494.506-1.024.99A4,4,0,0,0,136.647,296.07Z"/><path d="M41.312,329.839l.59,1.57A4,4,0,0,0,45.646,334h65.291a4,4,0,0,0,3.743-2.591l.591-1.569a6.907,6.907,0,0,1,4.976-4.322c8.12-1.81,22.678-6.79,28.94-19.811a4,4,0,0,0-3.605-5.734H11a4,4,0,0,0-3.6,5.734c6.261,13.021,20.819,18,28.939,19.811A6.911,6.911,0,0,1,41.312,329.839Zm96.61-21.866c-5.734,5.876-14.179,8.569-19.415,9.736a14.879,14.879,0,0,0-10.3,8.291H48.37a14.879,14.879,0,0,0-10.295-8.291c-5.236-1.167-13.68-3.86-19.415-9.736Z"/><path d="M319.349,182.685h-41.4v-6.678a7.255,7.255,0,0,1,4.657-6.793c12.707-4.745,16.316-15.87,16.583-23.733h7v26.757a4,4,0,0,0,8,0v-76a17.9,17.9,0,0,0-1.256-6.728c-.068-.167-.138-.336-.211-.5A13.612,13.612,0,0,0,287.229,90.3a24.168,24.168,0,0,0-.913,8.544,4.166,4.166,0,0,0,.083.619,59.561,59.561,0,0,0,2.435,7.959,21.13,21.13,0,0,1,.2,14.756,48.089,48.089,0,0,0-2.773,12.984,9.691,9.691,0,0,0,2.569,7.265,9.593,9.593,0,0,0,2.345,1.832c.038,4.279-1.114,13.632-11.366,17.46a15.289,15.289,0,0,0-9.858,14.287v6.678h-4.809a14.669,14.669,0,0,0-14.653,14.651v52.909a4,4,0,0,0,8,0V197.336a6.66,6.66,0,0,1,6.653-6.651h54.211A6.658,6.658,0,0,1,326,197.336V326H254.485a4,4,0,0,0,0,8H330a4,4,0,0,0,4-4V197.336A14.668,14.668,0,0,0,319.349,182.685ZM296.3,104.553a53.371,53.371,0,0,1-2.014-6.478,15.962,15.962,0,0,1,.575-5.383h0a5.436,5.436,0,0,1,5.018-3.9,5.577,5.577,0,0,1,5.5,3.413l.127.3a9.954,9.954,0,0,1,.676,3.736v41.239H295.846a1.587,1.587,0,0,1-1.169-.509,1.65,1.65,0,0,1-.44-1.252,40.081,40.081,0,0,1,2.317-10.822A29.141,29.141,0,0,0,296.3,104.553Z"/><path d="M260.924,261.805h-101.1a4,4,0,0,0-4,3.943,44.568,44.568,0,0,0,1.545,10.713,4,4,0,0,0,7.748-1.993,44.63,44.63,0,0,1-.942-4.663h92.4a44.527,44.527,0,0,1-.942,4.663,4,4,0,1,0,7.748,1.993,44.593,44.593,0,0,0,1.546-10.712A4,4,0,0,0,260.924,261.805Z"/><path d="M264.924,288.47a4,4,0,0,0-4-3.944h-101.1a4,4,0,0,0-4,3.944c-.015,1.137-.077,28.043,27.168,44.93a4.007,4.007,0,0,0,2.108.6h50.55a4,4,0,0,0,2.108-.6C265,316.513,264.939,289.607,264.924,288.47ZM234.489,326H186.257c-16.96-10.97-21.1-26.313-22.111-33.474H256.6C255.588,299.7,251.442,315.033,234.489,326Z"/><path d="M155.155,184.965l-1.717,1.081a24.822,24.822,0,0,0-11.49,18.364l-2.882,26.083A12.175,12.175,0,0,0,151.1,244l44,.249h.068a12.173,12.173,0,0,0,12.115-13.375L204.7,204.765a24.815,24.815,0,0,0-11.284-18.493l-1.7-1.1a17.027,17.027,0,0,1-7.737-14.8l2.108-63.092a22.934,22.934,0,0,0,2.065-7.831l3.29-39.589a22.6,22.6,0,0,0-5.637-16.9,15.868,15.868,0,0,0-11.535-5.289h-.084a15.875,15.875,0,0,0-11.51,5.159,22.636,22.636,0,0,0-5.823,16.908l2.838,39.556a22.931,22.931,0,0,0,1.977,7.856l1.4,63.107A17.037,17.037,0,0,1,155.155,184.965Zm32.215,6.925,1.7,1.1a16.854,16.854,0,0,1,7.665,12.563l2.587,26.113a4.128,4.128,0,0,1-1.067,3.222,4.252,4.252,0,0,1-3.111,1.363l-44-.249a4.174,4.174,0,0,1-4.126-4.631l2.881-26.083a16.861,16.861,0,0,1,7.806-12.475l1.716-1.082a25.072,25.072,0,0,0,11.638-21.656L169.846,115.3a11.947,11.947,0,0,0,3.978.725h.069a11.964,11.964,0,0,0,3.916-.681l-1.83,54.763A25.071,25.071,0,0,0,187.37,191.89Zm-18.9-143.548a7.962,7.962,0,0,1,5.715-2.675h.04a7.955,7.955,0,0,1,5.724,2.74,14.746,14.746,0,0,1,3.515,10.86l-3.284,39.521a14.363,14.363,0,0,1-2.233,6.718,4.941,4.941,0,0,1-4.051,2.517h-.023a4.935,4.935,0,0,1-4.047-2.564,14.376,14.376,0,0,1-2.157-6.742l-2.832-39.488A14.789,14.789,0,0,1,168.466,48.342Z"/><path d="M12.983,194.552a57.861,57.861,0,1,0,70.222-56.518V114.57a23.823,23.823,0,0,0,5.721-17.607L85.441,55.029a23.5,23.5,0,0,0-3.7-10.986,13.384,13.384,0,0,0-11.18-6.376h-.073a13.373,13.373,0,0,0-11.177,6.5A23.5,23.5,0,0,0,55.728,55.2L52.713,97.235a23.823,23.823,0,0,0,5.77,17.3v23.495A57.952,57.952,0,0,0,12.983,194.552Zm107.721,0a49.861,49.861,0,1,1-49.86-49.861A49.916,49.916,0,0,1,120.7,194.552ZM60.7,97.74l3.011-41.971A15.47,15.47,0,0,1,66.034,48.5a5.544,5.544,0,0,1,4.5-2.833h.025a5.554,5.554,0,0,1,4.505,2.782,15.489,15.489,0,0,1,2.408,7.242l3.479,41.867a15.938,15.938,0,0,1-3.789,11.777,8.671,8.671,0,0,1-6.252,2.985h-.045a8.684,8.684,0,0,1-6.239-2.913A15.892,15.892,0,0,1,60.7,97.74Zm5.786,21.929a15.557,15.557,0,0,0,4.381.651h.088a15.5,15.5,0,0,0,4.253-.642v17.195c-1.441-.108-2.892-.182-4.361-.182s-2.919.074-4.361.182Z"/><path d="M173.324,204.536H173.3a4,4,0,0,0-4,3.978l-.08,14.113a4,4,0,0,0,3.977,4.022h.023a4,4,0,0,0,4-3.977l.08-14.113A4,4,0,0,0,173.324,204.536Z"/><path d="M161.137,204.476a3.989,3.989,0,0,0-4.268,3.713L155.89,222.3a4,4,0,0,0,3.713,4.267c.094.007.188.01.281.01a4,4,0,0,0,3.986-3.723l.98-14.108A4,4,0,0,0,161.137,204.476Z"/><path d="M181.751,208.838l.82,14.119a4,4,0,0,0,3.99,3.768c.078,0,.157,0,.236-.007a4,4,0,0,0,3.761-4.225l-.821-14.118a4,4,0,1,0-7.986.463Z"/><path d="M67.14,60.07a3.467,3.467,0,0,0,.37.69,3.542,3.542,0,0,0,.49.61,4.153,4.153,0,0,0,.609.5,4.047,4.047,0,0,0,1.441.6,4.107,4.107,0,0,0,.78.07,4.032,4.032,0,0,0,.779-.07,4.6,4.6,0,0,0,.75-.23,4.542,4.542,0,0,0,.691-.37,3.736,3.736,0,0,0,.61-.5,4.279,4.279,0,0,0,.5-.61,4.1,4.1,0,0,0,.36-.69,3.832,3.832,0,0,0,.23-.75,4.047,4.047,0,0,0,.08-.78,4.129,4.129,0,0,0-.08-.78,4.053,4.053,0,0,0-.23-.75,4.524,4.524,0,0,0-.36-.69,4.188,4.188,0,0,0-.5-.6,3.283,3.283,0,0,0-.61-.5,4.047,4.047,0,0,0-1.441-.6,4.088,4.088,0,0,0-1.559,0,4.047,4.047,0,0,0-1.441.6,3.6,3.6,0,0,0-.609.5,3.47,3.47,0,0,0-.49.6,3.766,3.766,0,0,0-.37.69,4.021,4.021,0,0,0-.31,1.53,3.969,3.969,0,0,0,.08.78A3.832,3.832,0,0,0,67.14,60.07Z"/><path d="M170.46,60.07a4.172,4.172,0,0,0,.359.69,4.419,4.419,0,0,0,.5.61,4.008,4.008,0,0,0,5.66,0,3.6,3.6,0,0,0,.491-.61,3.519,3.519,0,0,0,.37-.69,3.953,3.953,0,0,0,.229-.74,4.151,4.151,0,0,0,.08-.79,4.045,4.045,0,0,0-.309-1.53,3.828,3.828,0,0,0-.37-.69,4,4,0,0,0-6.151-.61,5.106,5.106,0,0,0-.5.61,4.609,4.609,0,0,0-.359.69,4.056,4.056,0,0,0-.231.75,4.213,4.213,0,0,0-.08.78,4.32,4.32,0,0,0,.08.79A3.96,3.96,0,0,0,170.46,60.07Z"/><path d="M33.311,194.552a37.534,37.534,0,1,0,72.594-13.422,4,4,0,1,0-7.47,2.86,29.493,29.493,0,1,1-21.027-18.241,4,4,0,1,0,1.77-7.8,37.564,37.564,0,0,0-45.867,36.6Z"/><path d="M89.332,171.519c.556.447,1.1.92,1.623,1.4a4,4,0,0,0,5.445-5.86c-.659-.613-1.35-1.211-2.054-1.777a4,4,0,0,0-5.014,6.233Z"/></svg>